<svg xmlns="http://www.w3.org/2000/svg" style="position: absolute; width: 0; height: 0;" aria-hidden="true">
<symbol id="icon-arrow-down" viewBox="0 0 21 32"><path class="path1" d="M19.196 13.143q0 .232-.179.411l-8.321 8.321q-.179.179-.411.179t-.411-.179l-8.321-8.321q-.179-.179-.179-.411t.179-.411l.893-.893q.179-.179.411-.179t.411.179l7.018 7.018 7.018-7.018q.179-.179.411-.179t.411.179l.893.893q.179.179.179.411z"/></symbol>
<symbol id="icon-bars" viewBox="0 0 27 32"><path class="path1" d="M27.429 24v2.286q0 .464-.339.804t-.804.339H1.143q-.464 0-.804-.339T0 26.286V24q0-.464.339-.804t.804-.339h25.143q.464 0 .804.339t.339.804zm0-9.143v2.286q0 .464-.339.804t-.804.339H1.143q-.464 0-.804-.339T0 17.143v-2.286q0-.464.339-.804t.804-.339h25.143q.464 0 .804.339t.339.804zm0-9.143V8q0 .464-.339.804t-.804.339H1.143q-.464 0-.804-.339T0 8V5.714q0-.464.339-.804t.804-.339h25.143q.464 0 .804.339t.339.804z"/></symbol>
<symbol id="icon-close" viewBox="0 0 25 32"><path class="path1" d="M23.179 23.607q0 .714-.5 1.214L20.25 27.25q-.5.5-1.214.5t-1.214-.5L12.572 22l-5.25 5.25q-.5.5-1.214.5t-1.214-.5l-2.429-2.429q-.5-.5-.5-1.214t.5-1.214l5.25-5.25-5.25-5.25q-.5-.5-.5-1.214t.5-1.214l2.429-2.429q.5-.5 1.214-.5t1.214.5l5.25 5.25 5.25-5.25q.5-.5 1.214-.5t1.214.5l2.429 2.429q.5.5.5 1.214t-.5 1.214l-5.25 5.25 5.25 5.25q.5.5.5 1.214z"/></symbol>
<symbol id="icon-folder-open" viewBox="0 0 34 32"><path class="path1" d="M33.554 17q0 .554-.554 1.179l-6 7.071q-.768.911-2.152 1.545t-2.563.634H2.856q-.607 0-1.08-.232t-.473-.768q0-.554.554-1.179l6-7.071q.768-.911 2.152-1.545T12.572 16h19.429q.607 0 1.08.232t.473.768zm-6.125-6.143v2.857H12.572q-1.679 0-3.518.848t-2.929 2.134L.018 23.875q0-.071-.009-.223T0 23.429V6.286q0-1.643 1.179-2.821T4 2.286h5.714q1.643 0 2.821 1.179t1.179 2.821v.571h9.714q1.643 0 2.821 1.179t1.179 2.821z"/></symbol>
<symbol id="icon-hashtag" viewBox="0 0 32 32"><path class="path1" d="M17.696 18.286l1.143-4.571h-4.536l-1.143 4.571h4.536zm13.715-9l-1 4q-.125.429-.554.429h-5.839l-1.143 4.571h5.554q.268 0 .446.214.179.25.107.5l-1 4q-.089.429-.554.429h-5.839l-1.446 5.857q-.125.429-.554.429h-4q-.286 0-.464-.214-.161-.214-.107-.5l1.393-5.571h-4.536l-1.446 5.857q-.125.429-.554.429H5.857q-.268 0-.446-.214-.161-.214-.107-.5l1.393-5.571H1.143q-.268 0-.446-.214-.161-.214-.107-.5l1-4q.125-.429.554-.429h5.839l1.143-4.571H3.572q-.268 0-.446-.214-.179-.25-.107-.5l1-4q.089-.429.554-.429h5.839l1.446-5.857q.125-.429.571-.429h4q.268 0 .446.214.161.214.107.5l-1.393 5.571h4.536l1.446-5.857q.125-.429.571-.429h4q.268 0 .446.214.161.214.107.5l-1.393 5.571h5.554q.268 0 .446.214.161.214.107.5z"/></symbol>
<symbol id="icon-pin" viewBox="0 0 32 32"><path d="M32 8c0-4.416-3.586-8-8-8-2.984 0-5.562 1.658-6.938 4.086 0-.002.004-.004.004-.006-.367-.035-.723-.111-1.098-.111-6.629 0-12 5.371-12 12 0 2.527.789 4.867 2.121 6.797L0 32l9.289-6.062a11.952 11.952 0 006.68 2.031c6.629 0 12-5.371 12-12 0-.346-.07-.67-.102-1.008C30.32 13.594 32 11.006 32 8zM15.969 23.969c-4.414 0-8-3.586-8-8 0-4.412 3.586-8 8-8 .012 0 .023.004.031.004 0-.008.004-.014.004-.02 0 .016-.004.031-.004.047 0 .695.117 1.355.281 1.998l-3.172 3.174a4 4 0 105.656 5.656l3.141-3.141c.66.18 1.344.305 2.059.309-.016 4.402-3.594 7.973-7.996 7.973zM24 12c-2.203 0-4-1.795-4-4s1.797-4 4-4 4 1.795 4 4-1.797 4-4 4z"/></symbol>
</svg>